<?xml version="1.0" encoding="UTF-8"?>
<svg width="86px" height="86px" viewBox="0 0 86 86" version="1.1" xmlns="http://www.w3.org/2000/svg" xmlns:xlink="http://www.w3.org/1999/xlink">
    <!-- Generator: Sketch 62 (91390) - https://sketch.com -->
    <title>Group 2</title>
    <desc>Created with Sketch.</desc>
    <defs>
        <linearGradient x1="50%" y1="0%" x2="50%" y2="147.872943%" id="linearGradient-1">
            <stop stop-color="#DCB073" offset="0%"></stop>
            <stop stop-color="#B1794C" offset="100%"></stop>
        </linearGradient>
        <circle id="path-2" cx="37" cy="37" r="37"></circle>
        <filter x="-14.9%" y="-10.8%" width="129.7%" height="129.7%" filterUnits="objectBoundingBox" id="filter-3">
            <feMorphology radius="0.5" operator="dilate" in="SourceAlpha" result="shadowSpreadOuter1"></feMorphology>
            <feOffset dx="0" dy="3" in="shadowSpreadOuter1" result="shadowOffsetOuter1"></feOffset>
            <feGaussianBlur stdDeviation="3" in="shadowOffsetOuter1" result="shadowBlurOuter1"></feGaussianBlur>
            <feComposite in="shadowBlurOuter1" in2="SourceAlpha" operator="out" result="shadowBlurOuter1"></feComposite>
            <feColorMatrix values="0 0 0 0 0   0 0 0 0 0   0 0 0 0 0  0 0 0 0.16 0" type="matrix" in="shadowBlurOuter1"></feColorMatrix>
        </filter>
    </defs>
    <g id="Page-1" stroke="none" stroke-width="1" fill="none" fill-rule="evenodd">
        <g id="Home-page-2035" transform="translate(-1550.000000, -858.000000)">
            <g id="Group-2" transform="translate(1556.000000, 861.000000)">
                <g id="Oval">
                    <use fill="black" fill-opacity="1" filter="url(#filter-3)" xlink:href="#path-2"></use>
                    <use stroke="#979797" stroke-width="1" fill="url(#linearGradient-1)" fill-rule="evenodd" xlink:href="#path-2"></use>
                </g>
                <g id="planning" transform="translate(17.000000, 17.000000)" fill="#FFFFFF" fill-rule="nonzero">
                    <path d="M38.2305078,26.3803195 L38.2305078,3.56923828 C38.2305078,1.60116029 36.6293475,0 34.6612695,0 L8.40753906,0 C6.43946107,0 4.83830078,1.60116029 4.83830078,3.56923828 L4.83830078,4.83830078 L3.56923828,4.83830078 C1.60116029,4.83830078 0,6.43946107 0,8.40753906 C0,10.3756171 1.60116029,11.9767773 3.56923828,11.9767773 L4.83830078,11.9767773 L4.83830078,16.7357617 L3.56923828,16.7357617 C1.60116029,16.7357617 0,18.336922 0,20.305 C0,22.273078 1.60116029,23.8742383 3.56923828,23.8742383 L4.83830078,23.8742383 L4.83830078,28.6332227 L3.56923828,28.6332227 C1.60116029,28.6332227 0,30.2343829 0,32.2024609 C0,34.1705389 1.60116029,35.7716992 3.56923828,35.7716992 L4.83830078,35.7716992 L4.83830078,36.9614453 C4.83830078,37.9096729 5.2029183,38.8132454 5.86497234,39.5058363 C6.54566574,40.2178597 7.44868303,40.61 8.40753906,40.61 L32.2817773,40.61 C36.8739593,40.61 40.61,36.8384256 40.61,32.2024609 C40.61,29.9385328 39.7015099,27.8830481 38.2305078,26.3803195 Z M3.56923828,9.59728516 C2.91321229,9.59728516 2.37949219,9.06356506 2.37949219,8.40753906 C2.37949219,7.75151307 2.91321229,7.21779297 3.56923828,7.21779297 L6.02804687,7.21779297 C6.68407287,7.21779297 7.21779297,7.75151307 7.21779297,8.40753906 C7.21779297,9.06356506 6.68407287,9.59728516 6.02804687,9.59728516 L3.56923828,9.59728516 Z M3.56923828,21.4947461 C2.91321229,21.4947461 2.37949219,20.961026 2.37949219,20.305 C2.37949219,19.648974 2.91321229,19.1152539 3.56923828,19.1152539 L6.02804687,19.1152539 C6.68407287,19.1152539 7.21779297,19.648974 7.21779297,20.305 C7.21779297,20.961026 6.68407287,21.4947461 6.02804687,21.4947461 L3.56923828,21.4947461 Z M6.02804687,33.392207 L3.56923828,33.392207 C2.91321229,33.392207 2.37949219,32.8584869 2.37949219,32.2024609 C2.37949219,31.5464349 2.91321229,31.0127148 3.56923828,31.0127148 L6.02804687,31.0127148 C6.68407287,31.0127148 7.21779297,31.5464349 7.21779297,32.2024609 C7.21779297,32.8584869 6.68407287,33.392207 6.02804687,33.392207 Z M8.40753906,38.2305078 C7.77380098,38.2305078 7.21779297,37.637459 7.21779297,36.9614453 L7.21779297,35.5670629 C8.60257811,35.0759357 9.59728516,33.7534933 9.59728516,32.2024609 C9.59728516,30.6514286 8.60257811,29.3289862 7.21779297,28.837859 L7.21779297,23.669602 C8.60257811,23.1784748 9.59728516,21.8560323 9.59728516,20.305 C9.59728516,18.7539677 8.60257811,17.4315252 7.21779297,16.940398 L7.21779297,11.772141 C8.60257811,11.2810138 9.59728516,9.95857139 9.59728516,8.40753906 C9.59728516,6.85650674 8.60257811,5.5340643 7.21779297,5.04293711 L7.21779297,3.56923828 C7.21779297,2.91321229 7.75151307,2.37949219 8.40753906,2.37949219 L34.6612695,2.37949219 C35.3172955,2.37949219 35.8510156,2.91321229 35.8510156,3.56923828 L35.8510156,24.6789032 C34.7686639,24.1633466 33.5583749,23.8742383 32.2817773,23.8742383 C27.6895954,23.8742383 23.9535547,27.610279 23.9535547,32.2024609 C23.9535547,34.5645035 24.9238323,36.7017634 26.4826376,38.2305078 L8.40753906,38.2305078 Z M32.2817773,38.2305078 C29.0016474,38.2305078 26.3330469,35.5263736 26.3330469,32.2024609 C26.3330469,28.922331 29.0016474,26.2537305 32.2817773,26.2537305 C35.5619073,26.2537305 38.2305078,28.922331 38.2305078,32.2024609 C38.2305078,35.5263736 35.5619073,38.2305078 32.2817773,38.2305078 Z" id="Shape"></path>
                    <path d="M32.2817773,9.59728516 L25.1433008,9.59728516 C24.4862437,9.59728516 23.9535547,10.1299741 23.9535547,10.7870312 C23.9535547,11.4440884 24.4862437,11.9767773 25.1433008,11.9767773 L32.2817773,11.9767773 C32.9388345,11.9767773 33.4715234,11.4440884 33.4715234,10.7870312 C33.4715234,10.1299741 32.9388345,9.59728516 32.2817773,9.59728516 Z" id="Path"></path>
                    <path d="M32.2817773,19.1152539 L25.1433008,19.1152539 C24.4862437,19.1152539 23.9535547,19.6479429 23.9535547,20.305 C23.9535547,20.9620571 24.4862437,21.4947461 25.1433008,21.4947461 L32.2817773,21.4947461 C32.9388345,21.4947461 33.4715234,20.9620571 33.4715234,20.305 C33.4715234,19.6479429 32.9388345,19.1152539 32.2817773,19.1152539 Z" id="Path"></path>
                    <path d="M34.6612695,31.0127148 L33.4715234,31.0127148 L33.4715234,29.8229688 C33.4715234,29.1659116 32.9388345,28.6332227 32.2817773,28.6332227 C31.6247202,28.6332227 31.0920313,29.1659116 31.0920313,29.8229688 L31.0920313,32.2024609 C31.0920313,32.859518 31.6247202,33.392207 32.2817773,33.392207 L34.6612695,33.392207 C35.3183266,33.392207 35.8510156,32.859518 35.8510156,32.2024609 C35.8510156,31.5454038 35.3183266,31.0127148 34.6612695,31.0127148 Z" id="Path"></path>
                    <path d="M21.1462298,7.56622994 C20.6816736,7.10159443 19.9283264,7.10159443 19.4637702,7.56630926 L15.5460156,11.4839845 L13.673276,9.61124484 C13.2087198,9.14660934 12.4553725,9.14660934 11.990737,9.61124484 C11.5261015,10.0758804 11.5261015,10.8291483 11.990737,11.2937838 L14.7047858,14.0078326 C14.9370243,14.2401503 15.2415199,14.3562695 15.5460156,14.3562695 C15.8505113,14.3562695 16.155007,14.2401503 16.3872454,14.0077532 L21.1462298,9.24876887 C21.6108653,8.78413336 21.6108653,8.03086545 21.1462298,7.56622994 Z" id="Path"></path>
                    <path d="M21.1462298,17.0841987 C20.6816736,16.6195632 19.9283264,16.6195632 19.4637702,17.084278 L15.5460156,21.0019533 L13.673276,19.1292136 C13.2087198,18.6645781 12.4553725,18.6645781 11.990737,19.1292136 C11.5261015,19.5938491 11.5261015,20.347117 11.990737,20.8117525 L14.7047858,23.5258013 C14.9370243,23.7581191 15.2415199,23.8742383 15.5460156,23.8742383 C15.8505113,23.8742383 16.155007,23.7581191 16.3872454,23.525722 L21.1462298,18.7667376 C21.6108653,18.3021021 21.6108653,17.5488342 21.1462298,17.0841987 Z" id="Path"></path>
                    <path d="M21.1462298,26.6021674 C20.6816736,26.1375319 19.9283264,26.1375319 19.4637702,26.6022468 L15.5460156,30.519922 L13.673276,28.6471823 C13.2087198,28.1825468 12.4553725,28.1825468 11.990737,28.6471823 C11.5261015,29.1118179 11.5261015,29.8650858 11.990737,30.3297213 L14.7047858,33.0437701 C14.9370243,33.2760878 15.2415199,33.392207 15.5460156,33.392207 C15.8505113,33.392207 16.155007,33.2760878 16.3872454,33.0436907 L21.1462298,28.2847064 C21.6108653,27.8200709 21.6108653,27.0668029 21.1462298,26.6021674 Z" id="Path"></path>
                </g>
            </g>
        </g>
    </g>
</svg>