<?xml version="1.0" encoding="UTF-8"?>
<svg width="65px" height="50px" viewBox="0 0 65 50" version="1.1" xmlns="http://www.w3.org/2000/svg" xmlns:xlink="http://www.w3.org/1999/xlink">
    <!-- Generator: Sketch 63.1 (92452) - https://sketch.com -->
    <title>speaker</title>
    <desc>Created with Sketch.</desc>
    <g id="Page-1" stroke="none" stroke-width="1" fill="none" fill-rule="evenodd">
        <g id="News-flash-2" transform="translate(-713.000000, -444.000000)" fill="#F4F4F4" fill-rule="nonzero">
            <g id="Group" transform="translate(714.000000, 443.000000)">
                <g id="speaker" transform="translate(0.000000, 2.000000)">
                    <path d="M43.0000293,0 C40.7939692,0 39.0000586,1.83479507 39.0000586,4.09086551 L39.0000586,4.83034461 L15.6280093,14.3908386 C15.249024,14.5473637 15,14.9226164 15,15.3408955 L15,29.6591045 C15,30.0773836 15.249024,30.4527562 15.6280093,30.6082026 L39.0000586,40.1686966 L39.0000586,40.9091345 C39.0000586,43.1653248 40.7940864,45 43.0000293,45 C45.2059722,45 47,43.1652049 47,40.9091345 L47,4.09086551 C47,1.83467522 45.2060894,0 43.0000293,0 Z M45.0000732,40.9090146 C45.0000732,42.0370499 44.1031179,42.9545073 43.0000293,42.9545073 C41.8969407,42.9545073 40.9999854,42.0371697 40.9999854,40.9090146 L40.9999854,39.4771578 C40.9999854,39.0578 40.7509613,38.6825473 40.3710385,38.5271009 L16.9999268,28.9666069 L16.9999268,16.0332732 L40.3710385,6.47277923 C40.7510785,6.31625416 40.9999854,5.94100147 40.9999854,5.52272237 L40.9999854,4.09086551 C40.9999854,2.96283029 41.8969407,2.04537283 43.0000293,2.04537283 C44.1031179,2.04537283 45.0000732,2.96271044 45.0000732,4.09086551 L45.0000732,40.9090146 Z" id="Shape" stroke="#F4F4F4" stroke-width="2"></path>
                    <path d="M15.0000366,14 L8.00005859,14 C3.58899314,14 0,17.5889669 0,22 C0,26.4110331 3.58899314,30 8.00005859,30 L15.0000366,30 C15.5519911,30 16,29.5530491 16,29.0000439 L16,15.0000732 C16,14.4480056 15.5519911,14 15.0000366,14 Z M14.0000732,27.9999707 L8.00005859,27.9999707 C4.69102708,27.9999707 2.00004395,25.3090073 2.00004395,22 C2.00004395,18.6909927 4.69102708,16.0000293 8.00005859,16.0000293 L14.0000732,16.0000293 L14.0000732,27.9999707 Z" id="Shape" stroke="#F4F4F4" stroke-width="2"></path>
                    <path d="M52.3159799,18.0509621 L46.3160092,16.0509122 C46.0100341,15.9498961 45.6769889,16.0008729 45.4149589,16.1889598 C45.1539836,16.3769296 45,16.6789234 45,17.0000189 L45,27.0000337 C45,27.321012 45.1539836,27.6230058 45.4149589,27.8120302 C45.5879268,27.9360153 45.7930039,28 45.9999561,28 C46.1060102,28 46.2130019,27.9830077 46.3160092,27.9479685 L52.3159799,25.9479186 C52.7249623,25.8129179 53,25.4308846 53,24.9998667 L53,18.9998344 C52.9998828,18.5689336 52.7249623,18.187955 52.3159799,18.0509621 Z M50.9999707,24.2789253 L47.0000293,25.6119403 L47.0000293,18.3869404 L50.9999707,19.7199554 L50.9999707,24.2789253 Z" id="Shape" stroke="#F4F4F4" stroke-width="2"></path>
                    <path d="M20.2841153,42.4929133 L19.2529892,41.4879174 L16.2406132,29.7579656 C16.1266321,29.3130065 15.7157223,29 15.2443916,29 L7.02763919,29 C6.71337862,29 6.41753316,29.1400385 6.22242923,29.3780453 C6.02732529,29.6180443 5.95534987,29.9310509 6.02732529,30.2290574 L10.1355811,47.2290266 C10.2475161,47.6880482 10.6675734,48 11.1349321,48 C11.1996859,48 11.2643194,47.9940235 11.3300361,47.9810157 L19.0433216,46.5310607 C19.0535522,46.5290685 19.0639032,46.5270764 19.0741338,46.5250842 C19.5260865,46.4260612 19.9389221,46.2061011 20.2676259,45.8911024 C20.7359476,45.4400496 20.9958053,44.8400521 20.9999494,44.1981016 C21.0041102,43.5569714 20.7514741,42.9529895 20.2841153,42.4929133 Z M18.8246271,44.4669286 C18.7722704,44.5179049 18.7065537,44.5529439 18.6345783,44.5708735 L11.9102928,45.8359073 L8.32476142,30.9999137 L14.4420703,30.9999137 L17.3302344,42.2418987 C17.3753695,42.4179136 17.4688894,42.5789285 17.6003228,42.7068968 L18.8287193,43.9029075 C18.9324698,44.0039227 18.9467927,44.1228675 18.9467927,44.1859141 C18.9458298,44.2469686 18.9294608,44.3659134 18.8246271,44.4669286 Z" id="Shape" stroke="#F4F4F4" stroke-width="2"></path>
                    <rect id="Rectangle" stroke="#F4F4F4" x="57" y="21" width="6" height="2"></rect>
                    <polygon id="Rectangle" stroke="#F4F4F4" transform="translate(59.439426, 11.775535) rotate(-30.971618) translate(-59.439426, -11.775535) " points="56.4747225 10.7601685 62.4061052 10.7544086 62.4041296 12.7909012 56.4727469 12.7966611"></polygon>
                    <polygon id="Rectangle" stroke="#F4F4F4" transform="translate(59.448817, 33.169660) rotate(-59.036243) translate(-59.448817, -33.169660) " points="58.433356 30.2047959 60.4700383 30.2028205 60.4642789 36.1345242 58.4275966 36.1364997"></polygon>
                    <rect id="Rectangle" stroke="#F4F4F4" stroke-width="2" x="39" y="5" width="2" height="34"></rect>
                    <rect id="Rectangle" x="10" y="19" width="2" height="6"></rect>
                    <rect id="Rectangle" x="6" y="19" width="2" height="6"></rect>
                </g>
            </g>
        </g>
    </g>
</svg>